<svg xmlns="http://www.w3.org/2000/svg" width="44" height="45" viewBox="0 0 44 45" fill="none"><g clip-path="url(#clip0_2444_42662)"><path d="M32.8698 10.1057H5.75928L5.75945 34.9642H27.7044" stroke="#FF98B0" stroke-width="3.4974" stroke-miterlimit="10" stroke-linejoin="round"></path><path d="M38.2407 35.8252L38.2407 8.27643" stroke="url(#paint0_linear_2444_42662)" stroke-width="3.4974"></path><path d="M34.5283 43.418L32.1963 38.9789" stroke="#FF98B0" stroke-width="3.4974"></path><path d="M28.3192 30.1028C28.9156 29.8076 29.6276 29.8767 30.1564 30.2806L35.945 34.7058L36.1166 34.8556C36.491 35.228 36.68 35.7537 36.6213 36.2867C36.5542 36.8956 36.1736 37.4255 35.6175 37.6827L29.8376 40.3558C29.2964 40.6061 28.6649 40.5627 28.1623 40.2418C27.6599 39.921 27.3554 39.3663 27.3547 38.7701L27.346 31.6718L27.3502 31.5483C27.393 30.9318 27.7599 30.3796 28.3192 30.1028Z" stroke="#FF98B0" stroke-width="3.4974"></path><path d="M11.2397 17.1011H21.7858" stroke="#FF98B0" stroke-width="3.4974"></path><path d="M11.2397 24.311H21.7858" stroke="#FF98B0" stroke-width="3.4974"></path></g><defs><linearGradient id="paint0_linear_2444_42662" x1="38.7407" y1="8.47826" x2="38.7407" y2="32.8988" gradientUnits="userSpaceOnUse"><stop stop-color="#FF98B0" stop-opacity="0"></stop><stop offset="1" stop-color="#FF98B0"></stop></linearGradient><clipPath id="clip0_2444_42662"><rect width="44" height="44" fill="white" transform="translate(0 0.619141)"></rect></clipPath></defs></svg>