<svg xmlns="http://www.w3.org/2000/svg" width="44" height="44" viewBox="0 0 44 44" fill="none"><path d="M5.39648 10.5342V8.94451C4.97486 8.94451 4.57051 9.112 4.27237 9.41014C3.97424 9.70827 3.80675 10.1126 3.80676 10.5343L5.39648 10.5342ZM5.39663 33.4656L3.8069 33.4657C3.80691 34.3436 4.51865 35.0554 5.39663 35.0554V33.4656ZM34.7455 33.4656V35.0554H36.3352V33.4656H34.7455ZM31.5826 8.94451H5.39648V12.124H31.5826V8.94451ZM3.80676 10.5343L3.8069 33.4657L6.98636 33.4656L6.98621 10.5342L3.80676 10.5343ZM5.39663 35.0554H34.7455V31.8759H5.39663V35.0554ZM36.3352 33.4656V21.293H33.1557V33.4656H36.3352Z" fill="#ACEFF8"></path><path d="M14.5796 15.9648C15.3893 15.9648 16.1082 16.1052 16.731 16.3935L16.9595 16.5058C17.4775 16.7792 17.8968 17.1409 18.2134 17.5917H18.2144C18.5782 18.1065 18.7644 18.6984 18.7759 19.3603L18.7788 19.5595H16.4692L16.4507 19.3847C16.4058 18.9651 16.2208 18.6479 15.8931 18.4179H15.8921C15.5618 18.1838 15.1204 18.0576 14.5522 18.0576C14.2521 18.0576 13.9903 18.0921 13.7642 18.1572L13.5493 18.2324C13.3438 18.3191 13.1813 18.4265 13.0562 18.5517L12.9429 18.6826C12.8089 18.8653 12.7399 19.0734 12.7368 19.3124C12.7372 19.5104 12.7815 19.6725 12.8628 19.8056H12.8638C12.9558 19.9498 13.0817 20.0752 13.2446 20.1806C13.415 20.2872 13.6053 20.3783 13.8159 20.4531L14.1431 20.5595L14.4731 20.6474L14.4751 20.6484L15.5161 20.9081H15.5151C15.9445 21.0082 16.3576 21.1438 16.7544 21.3144L17.0513 21.4521C17.3405 21.5992 17.6062 21.7724 17.8481 21.9716H17.8472C18.1792 22.2419 18.4422 22.5689 18.6353 22.9511L18.7046 23.0995C18.8549 23.4541 18.9272 23.8546 18.9272 24.2968C18.9272 24.9823 18.7519 25.5938 18.396 26.124L18.395 26.1249C18.0834 26.5855 17.6527 26.9546 17.1099 27.2343L16.8706 27.3486H16.8696C16.2134 27.6368 15.4282 27.7773 14.52 27.7773C13.6368 27.7773 12.86 27.6409 12.1948 27.3613L12.1938 27.3603C11.5312 27.08 11.0053 26.6681 10.6245 26.122L10.6235 26.121C10.2921 25.6408 10.0983 25.0731 10.0347 24.4247L10.0151 24.1415L10.0073 23.9384H12.3706L12.3843 24.1191C12.4107 24.4728 12.5186 24.755 12.6987 24.9755C12.8846 25.2029 13.1278 25.3749 13.4341 25.4902L13.6772 25.5673C13.9288 25.6337 14.2038 25.6679 14.5034 25.6679C14.9211 25.6679 15.2786 25.6051 15.5796 25.4863L15.7964 25.3857C15.9982 25.2773 16.1585 25.146 16.2808 24.9931C16.4391 24.7916 16.5208 24.5576 16.5249 24.2831L16.5103 24.1064C16.4826 23.9403 16.4177 23.8049 16.3198 23.6943L16.3179 23.6933C16.1761 23.5299 15.9706 23.3865 15.6909 23.2685L15.688 23.2665C15.4749 23.173 15.2325 23.087 14.9604 23.0078L14.6772 22.9306L13.4146 22.6054C12.4792 22.3651 11.7245 21.9968 11.1636 21.4931L11.1626 21.4921C10.5896 20.97 10.3072 20.2774 10.3071 19.4345C10.3071 18.7428 10.4954 18.129 10.8755 17.6015L10.8765 17.6005L11.0249 17.4101C11.3866 16.9798 11.8509 16.6415 12.4126 16.3935L12.6577 16.2929C13.238 16.0732 13.8793 15.9648 14.5796 15.9648Z" fill="#ACEFF8" stroke="#ACEFF8" stroke-width="0.391318"></path><rect x="13.6196" y="14.7408" width="1.67407" height="2.43727" fill="#ACEFF8"></rect><rect x="13.6196" y="27.0269" width="1.67407" height="1.85029" fill="#ACEFF8"></rect><path d="M34.6758 21.5401L34.6758 13.4203" stroke="url(#paint0_linear_2444_48790)" stroke-width="3.17946"></path><defs><linearGradient id="paint0_linear_2444_48790" x1="2.28778e+07" y1="8.15745" x2="2.28778e+07" y2="23.1977" gradientUnits="userSpaceOnUse"><stop offset="0.25" stop-color="#ACEFF8" stop-opacity="0"></stop><stop offset="0.8" stop-color="#ACEFF8"></stop></linearGradient></defs></svg>