<svg xmlns="http://www.w3.org/2000/svg" width="45" height="44" viewBox="0 0 45 44" fill="none"><path fill-rule="evenodd" clip-rule="evenodd" d="M34.1453 6.63635H27.1147C21.9548 6.63635 17.772 10.8192 17.772 15.9791V24.588V26.2022H19.3862H27.9952C33.155 26.2022 37.3379 22.0194 37.3379 16.8595V9.79123L34.1453 6.63635ZM21.0003 15.9791C21.0003 12.6022 23.7378 9.86472 27.1147 9.86472H34.1095V16.8595C34.1095 20.2364 31.372 22.9739 27.9952 22.9739H21.0003V15.9791Z" fill="#E8FF8C"></path><path d="M19.3862 28.5991V36.1319" stroke="url(#paint0_linear_2444_48815)" stroke-width="3.17946"></path><path fill-rule="evenodd" clip-rule="evenodd" d="M4.66333 16.4438H6.27752H15.0822C18.351 16.4438 21.0008 19.0937 21.0008 22.3625V27.9143V29.5285H19.3867H10.582C7.31321 29.5285 4.66333 26.8786 4.66333 23.6098V18.058V16.4438ZM7.8917 19.6722V23.6098C7.8917 25.0956 9.09619 26.3001 10.582 26.3001H17.7725V22.3625C17.7725 20.8766 16.568 19.6722 15.0822 19.6722H7.8917Z" fill="#E8FF8C"></path><defs><linearGradient id="paint0_linear_2444_48815" x1="21.3861" y1="36.4254" x2="21.3861" y2="29.0882" gradientUnits="userSpaceOnUse"><stop stop-color="#E8FF8C" stop-opacity="0"></stop><stop offset="1" stop-color="#E8FF8C"></stop></linearGradient></defs></svg>